{"title":"Hathat Sedin (2012) - Bengali - Original DVD RIP","uid":7528895,"size":741345140,"categoryP":"video","categoryS":"movies","magnet":"?xt=urn:btih:302aa5fd9df953ae734b419370042bc00818caf9&amp;dn=Hathat+Sedin+%282012%29+-+Bengali+-+Original+DVD+RIP&amp;tr=udp%3A%2F%2Ftracker.openbittorrent.com%3A80&amp;tr=udp%3A%2F%2Fopen.demonii.com%3A1337&amp;tr=udp%3A%2F%2Ftracker.coppersurfer.tk%3A6969&amp;tr=udp%3A%2F%2Fexodus.desync.com%3A6969","seeders":1,"leechers":1,"uploader":"avimumu","files":-1,"time":1344872859,"description":"\n\n\nNote :\n\n\n\nActually The Movie Was Out On Saturday Evening . At That Time I Was Engaging Myself In Complete Magibazi At Park Street . That's Why I'm Two Days Late . Also I Expected This Film From Supuri . In These Days Supuri Is A Bit Slow . He Is Now In Passive &amp; Pacific Mode . Biti Comes To A Moribund State . So I'm Forced To Upload This New Movie Released On 27.04.12 . Enjoy !\n\n\n\nScreens : \n\n\n\n &lt;a href=&quot;\nhttp://www.shotpix.com/images/31017757573416549121.jpg&quot; rel=&quot;nofollow&quot; target=&quot;_NEW&quot;&gt;\nhttp://www.shotpix.com/images/31017757573416549121.jpg&lt;/a&gt;\n\n &lt;a href=&quot;\nhttp://www.shotpix.com/images/05364355552652784813.jpeg&quot; rel=&quot;nofollow&quot; target=&quot;_NEW&quot;&gt;\nhttp://www.shotpix.com/images/05364355552652784813.jpeg&lt;/a&gt;\n\n\n\n\nExtra Screens :\n\n\n &lt;a href=&quot;\nhttp://www.shotpix.com/images/78536288886540470657.jpg&quot; rel=&quot;nofollow&quot; target=&quot;_NEW&quot;&gt;\nhttp://www.shotpix.com/images/78536288886540470657.jpg&lt;/a&gt;\n\n &lt;a href=&quot;\nhttp://www.shotpix.com/images/80331767269472935572.jpg&quot; rel=&quot;nofollow&quot; target=&quot;_NEW&quot;&gt;\nhttp://www.shotpix.com/images/80331767269472935572.jpg&lt;/a&gt;\n\n &lt;a href=&quot;\nhttp://www.shotpix.com/images/89649280949458221858.jpg&quot; rel=&quot;nofollow&quot; target=&quot;_NEW&quot;&gt;\nhttp://www.shotpix.com/images/89649280949458221858.jpg&lt;/a&gt;\n\n &lt;a href=&quot;\nhttp://www.shotpix.com/images/14823308210439952341.jpg&quot; rel=&quot;nofollow&quot; target=&quot;_NEW&quot;&gt;\nhttp://www.shotpix.com/images/14823308210439952341.jpg&lt;/a&gt;\n\n\n\n\nMedia Info :\n\n\n\nFormat                           : AVI\nFormat/Info                      : Audio Video Interleave\nFile size                        : 706 MiB\nDuration                         : 1h 26mn\nOverall bit rate                 : 1 140 Kbps\nWriting application              : Encoder version Beta 4.4.5 building on 20110111\n\nVideo\nID                               : 0\nFormat                           : MPEG-4 Visual\nFormat profile                   : Simple@L1\nFormat settings, BVOP            : No\nFormat settings, QPel            : No\nFormat settings, GMC             : No warppoints\nFormat settings, Matrix          : Default (H.263)\nCodec ID                         : DX50\nCodec ID/Hint                    : DivX 5\nDuration                         : 1h 26mn\nBit rate                         : 999 Kbps\nWidth                            : 640 pixels\nHeight                           : 480 pixels\nDisplay aspect ratio             : 4:3\nFrame rate                       : 23.976 fps\nColor space                      : YUV\nChroma subsampling               : 4:2:0\nBit depth                        : 8 bits\nScan type                        : Progressive\nCompression mode                 : Lossy\nBits/(Pixel*Frame)               : 0.136\nStream size                      : 619 MiB (88%)\n\nAudio\nID                               : 1\nFormat                           : MPEG Audio\nFormat version                   : Version 1\nFormat profile                   : Layer 3\nCodec ID                         : 55\nCodec ID/Hint                    : MP3\nDuration                         : 1h 26mn\nBit rate mode                    : Constant\nBit rate                         : 128 Kbps\nChannel(s)                       : 2 channels\nSampling rate                    : 48.0 KHz\nCompression mode                 : Lossy\nStream size                      : 79.2 MiB (11%)\nAlignment                        : Aligned on interleaves\nInterleave, duration             : 24 ms (0.58 video frame)\nInterleave, preload duration     : 504 ms\n\n\n\n\n","torrent":{"xt":"urn:btih:302aa5fd9df953ae734b419370042bc00818caf9","amp;dn":"Hathat+Sedin+%282012%29+-+Bengali+-+Original+DVD+RIP","amp;tr":["udp%3A%2F%2Ftracker.openbittorrent.com%3A80","udp%3A%2F%2Fopen.demonii.com%3A1337","udp%3A%2F%2Ftracker.coppersurfer.tk%3A6969","udp%3A%2F%2Fexodus.desync.com%3A6969"],"infoHash":"302aa5fd9df953ae734b419370042bc00818caf9","infoHashBuffer":{"type":"Buffer","data":[48,42,165,253,157,249,83,174,115,75,65,147,112,4,43,192,8,24,202,249]},"announce":[],"urlList":[]}}